Coordinates
version=1
nRows=19
nColumns=36
inDegrees=yes

Units are S.I. units (second, meters, Newtons, ...)
If the header above contains a line with 'inDegrees', this indicates whether rotational values are in degrees (yes) or radians (no).

endheader
time	pelvis_tilt	pelvis_list	pelvis_rotation	pelvis_tx	pelvis_ty	pelvis_tz	hip_flexion_r	hip_adduction_r	hip_rotation_r	knee_angle_r	knee_angle_r_beta	ankle_angle_r	subtalar_angle_r	mtp_angle_r	hip_flexion_l	hip_adduction_l	hip_rotation_l	knee_angle_l	knee_angle_l_beta	ankle_angle_l	subtalar_angle_l	mtp_angle_l	lumbar_extension	lumbar_bending	lumbar_rotation	arm_flex_r	arm_add_r	arm_rot_r	elbow_flex_r	pro_sup_r	arm_flex_l	arm_add_l	arm_rot_l	elbow_flex_l	pro_sup_l
      0.37000000	      4.59682481	     -1.25351282	      4.79039753	      0.24755570	      0.91295804	     -0.20866036	     -2.50913642	      5.12354730	     -0.40322594	     11.78238316	      0.20564138	      9.94554942	     -6.65995645	     -6.90857052	     22.38155483	     -4.84400408	     -5.88208698	     63.13256648	      1.10187115	      2.73182877	      0.96284944	     -6.90857052	    -17.20510029	      1.96497478	      2.46893968	      8.64054650	    -10.16609272	     -0.26222163	     28.96928727	     91.01305614	      7.23060788	     -5.80176791	      9.21607153	     25.86806259	     91.70611755
      0.38000000	      4.74563719	     -1.25886262	      4.77022598	      0.25767451	      0.91300653	     -0.20771620	     -3.48465472	      5.21201047	     -0.84854486	     11.60082019	      0.20247251	     10.62829513	     -5.79588929	     -6.93909001	     23.15508291	     -4.88472675	     -6.47902461	     61.52538486	      1.07382054	      2.34197575	     -0.35011126	     -6.93909001	    -17.33180828	      1.64993005	      2.49625378	      9.61688885	    -10.66874956	      2.34912725	     28.69833805	     92.42558304	      6.85459923	     -5.84579381	      7.98811987	     26.81491464	     91.82013337
      0.39000000	      4.76510587	     -1.27088680	      4.60744956	      0.26774193	      0.91275662	     -0.20647252	     -4.27492071	      5.34046849	     -0.73136189	     11.51989543	      0.20106010	     11.03193130	     -5.57517432	     -6.95115437	     23.93649321	     -4.98933841	     -7.09583403	     59.78833837	      1.04350336	      2.68084023	     -0.93974184	     -6.95115437	    -17.33965066	      1.23619750	      3.02490908	     10.28231990	    -10.94934205	      3.13340821	     28.70590796	     92.89308963	      6.82676329	     -5.88076312	      7.60261015	     27.27015798	     91.88195047
      0.40000000	      4.78018534	     -1.28141904	      4.60992249	      0.27788083	      0.91237937	     -0.20566508	     -5.05148125	      5.43079739	     -0.95786209	     11.46917678	      0.20017490	     11.57610277	     -4.94715936	     -6.98274636	     24.67729039	     -4.99776293	     -7.60069859	     57.88138039	      1.01022066	      2.44168425	     -2.12266615	     -6.98274636	    -17.29076111	      0.88114939	      3.06672082	     11.22474467	    -11.32680275	      5.35861972	     28.25167076	     94.02585526	      6.55167155	     -5.89389444	      6.57688749	     28.01257662	     91.97044885
      0.41000000	      4.64125505	     -1.45842209	      4.60175235	      0.28792734	      0.91160287	     -0.20483306	     -5.59791099	      5.71467159	     -1.01384256	     11.49256554	      0.20058311	     11.77619333	     -4.94473062	     -6.98553972	     25.58038102	     -5.21524643	     -8.00155782	     55.99123590	      0.97723142	      2.80706842	     -2.28301563	     -6.98553972	    -17.07049190	      0.69015267	      3.46885084	     11.77494142	    -11.49355061	      5.53113065	     28.36466110	     94.12010228	      6.59396456	     -5.87437716	      6.49951202	     28.17955446	     91.98863547
      0.42000000	      4.72584152	     -1.36783869	      4.50936068	      0.29793399	      0.91111657	     -0.20404413	     -6.37510275	      5.68367285	     -1.01033357	     11.61686370	      0.20275252	     12.55251213	     -4.47565360	     -7.00617686	     25.99588475	     -5.12198526	     -8.51282940	     53.72252726	      0.93763498	      2.82764269	     -3.07930458	     -7.00617686	    -17.17865633	      0.14993254	      3.70479887	     12.62001148	    -11.79372311	      7.32334485	     28.03875390	     94.77589740	      6.51216029	     -5.89080512	      5.77812807	     28.78421564	     92.02410065
      0.43000000	      4.52651012	     -1.41905184	      4.49536968	      0.30795629	      0.91008785	     -0.20340942	     -6.78818370	      5.79432012	     -1.06801451	     11.80370082	      0.20601344	     12.86659080	     -4.38547514	     -7.01395682	     26.74136305	     -5.13382436	     -8.81446855	     51.45808097	      0.89811294	      3.13592652	     -3.09675241	     -7.01395682	    -16.92231995	     -0.21673346	      4.00275665	     13.20453669	    -11.94244816	      7.89399577	     27.95643778	     94.97677108	      6.54024633	     -5.87334356	      5.48255219	     29.00518435	     92.03622512
      0.44000000	      4.34576267	     -1.50324561	      4.51257436	      0.31797319	      0.90901378	     -0.20286659	     -7.21908292	      5.95033159	     -1.07982956	     11.98799151	      0.20922992	     13.18893809	     -4.28668872	     -7.01929137	     27.40463277	     -5.14243402	     -8.97295086	     49.08359993	      0.85667043	      3.33582841	     -2.96299792	     -7.01929137	    -16.70664872	     -0.55388443	      4.26228915	     13.74718335	    -12.07516489	      8.38007110	     27.94684437	     95.12612612	      6.57834605	     -5.84618038	      5.23891869	     29.18291416	     92.04164259
      0.45000000	      4.18478826	     -1.55720129	      4.51947627	      0.32802084	      0.90789051	     -0.20242101	     -7.64775672	      6.05213538	     -1.14535542	     12.22964222	      0.21344752	     13.58789767	     -4.16242299	     -7.02500387	     27.95217729	     -5.12261373	     -9.12106068	     46.57694190	      0.81292099	      3.48516597	     -2.65456755	     -7.02500387	    -16.51555874	     -0.93847721	      4.49396413	     14.29143166	    -12.17978403	      8.95462058	     27.89797848	     95.28468022	      6.64936355	     -5.82844798	      4.92759671	     29.35855179	     92.04083608
      0.46000000	      4.07250104	     -1.59851207	      4.53615180	      0.33819208	      0.90675663	     -0.20214399	     -8.04720450	      6.06586808	     -1.73850811	     12.65683419	      0.22090343	     14.54622932	     -2.91641791	     -7.06270463	     28.35933565	     -5.08045635	     -9.21489390	     43.97511031	      0.76751046	      3.72975606	     -2.04631601	     -7.06270463	    -16.36287479	     -1.32300470	      4.28201393	     15.34107741	    -12.32261910	     11.57525214	     27.02614785	     95.92197720	      6.32375449	     -5.73334673	      3.35762850	     29.97948179	     92.08574760
      0.47000000	      3.79588245	     -1.67603995	      4.49360353	      0.34841678	      0.90542765	     -0.20176022	     -8.36457167	      6.18629810	     -1.61776066	     12.87335967	      0.22468251	     14.70464204	     -2.96869317	     -7.06691520	     28.87449833	     -5.05729940	     -9.18369202	     41.29630286	      0.72075645	      3.88854238	     -1.55141270	     -7.06691520	    -16.04635253	     -1.71721757	      4.57280516	     15.68187657	    -12.33591453	     11.66018086	     27.11380732	     95.94642131	      6.40539161	     -5.72652971	      3.23641374	     30.02273895	     92.10046470
      0.48000000	      3.54086951	     -1.71212636	      4.39608958	      0.35872376	      0.90414146	     -0.20137453	     -8.69528846	      6.23817991	     -1.53879024	     13.12852478	      0.22913598	     14.91117455	     -2.95748817	     -7.07096296	     29.24669219	     -5.02807761	     -9.19107081	     38.50449078	      0.67203014	      4.11684798	     -0.91721596	     -7.07096296	    -15.75705855	     -2.17494462	      4.89320860	     15.98428422	    -12.31827472	     11.75351256	     27.18427707	     95.97166395	      6.49366337	     -5.72148350	      3.06885231	     30.03882325	     92.10221208
      0.49000000	      3.28607655	     -1.74972856	      4.24205590	      0.36917988	      0.90283277	     -0.20102608	     -9.02641825	      6.27008300	     -1.49178972	     13.38409762	      0.23359657	     15.12010604	     -2.86192502	     -7.07490984	     29.53109868	     -5.04309269	     -9.24046217	     35.68469823	      0.62281548	      4.43622227	     -0.22996684	     -7.07490984	    -15.45881321	     -2.66022827	      5.22548241	     16.23549054	    -12.28498594	     11.82438329	     27.24433974	     95.99285071	      6.55746580	     -5.70286647	      2.86336830	     30.02177436	     92.08950718
      0.50000000	      3.03919971	     -1.75279661	      4.04452293	      0.37972734	      0.90155374	     -0.20069817	     -9.37249055	      6.23916633	     -1.48773126	     13.65408339	      0.23830871	     15.35190804	     -2.67061378	     -7.07946798	     29.70846955	     -5.05912152	     -9.37306713	     32.79925135	      0.57245493	      4.85395185	      0.53999094	     -7.07946798	    -15.17234792	     -3.19393256	      5.60153977	     16.43246131	    -12.22129749	     11.86516986	     27.29760399	     96.00918482	      6.64959175	     -5.68446962	      2.57262244	     29.97006550	     92.05429221
      0.51000000	      2.75553182	     -1.78216012	      3.79768486	      0.39039425	      0.90021207	     -0.20040093	     -9.68147026	      6.21335650	     -1.47068309	     13.91342069	      0.24283500	     15.51670125	     -2.39666119	     -7.08371794	     29.86316748	     -5.13450319	     -9.54296586	     29.92585221	      0.52230465	      5.34689659	      1.27311699	     -7.08371794	    -14.84317775	     -3.71395176	      5.99658504	     16.58524981	    -12.13996917	     11.86090401	     27.36698363	     96.01849948	      6.73627670	     -5.65947621	      2.23682170	     29.89271458	     91.99638375
      0.52000000	      2.45533816	     -1.80351072	      3.50414421	      0.40118348	      0.89885275	     -0.20011324	     -9.97517386	      6.16025087	     -1.43546016	     14.18138714	      0.24751190	     15.61923864	     -2.07200192	     -7.08761137	     29.96531751	     -5.23005729	     -9.75378642	     27.05764903	      0.47224506	      5.88838848	      1.99872540	     -7.08761137	    -14.49079660	     -4.25991205	      6.43150901	     16.66461610	    -12.02931382	     11.82552789	     27.44248695	     96.02181739	      6.82104428	     -5.64241877	      1.84095935	     29.78084484	     91.91137485
      0.53000000	      2.19248346	     -1.80000210	      3.16559339	      0.41212975	      0.89755332	     -0.19984381	    -10.31355357	      6.05374765	     -1.47501196	     14.45733101	      0.25232803	     15.73727090	     -1.67465671	     -7.09200637	     29.94820891	     -5.34294232	    -10.06084371	     24.21859176	      0.42269417	      6.46542442	      2.81419731	     -7.09200637	    -14.17176197	     -4.83809506	      6.92564718	     16.68384329	    -11.91164124	     11.74173623	     27.52902678	     96.01720342	      6.94729750	     -5.59611032	      1.31516456	     29.63633157	     91.78120652
      0.54000000	      1.89857702	     -1.81813714	      2.76468224	      0.42320407	      0.89623000	     -0.19962553	    -10.62222634	      5.93805330	     -1.47966977	     14.72568559	      0.25701170	     15.77391892	     -1.22182552	     -7.09606710	     29.92194835	     -5.50142616	    -10.36015976	     21.46701505	      0.37467009	      7.08863082	      3.61942809	     -7.09606710	    -13.82147346	     -5.41766748	      7.43008091	     16.64093643	    -11.78147322	     11.64238347	     27.62671140	     96.00849400	      7.02843290	     -5.55161249	      0.76156113	     29.49225227	     91.63095729
      0.55000000	      1.81600155	     -1.76591556	      2.35229773	      0.43455262	      0.89514797	     -0.19947014	    -11.13957967	      5.66100653	     -2.01622646	     15.06818110	      0.26298937	     16.31420068	      0.29315243	     -7.11502613	     29.61402922	     -5.70175034	    -11.15417191	     18.88061412	      0.32952888	      8.02687210	      5.43951001	     -7.11502613	    -13.69506474	     -6.06148514	      7.98170096	     16.47428357	    -11.58188920	     11.01483076	     27.98926583	     95.93829881	      7.11892957	     -5.31044760	     -0.88938330	     29.52666291	     91.05640112
